<svg width="283" height="54" viewBox="0 0 283 54" fill="none" xmlns="http://www.w3.org/2000/svg">
<path d="M255.466 13.92C255.466 11.84 255.786 9.94666 256.426 8.24C257.119 6.53333 258.079 5.06667 259.306 3.84C260.533 2.61333 261.999 1.68 263.706 1.04C265.466 0.346666 267.439 0 269.626 0C271.866 0 273.839 0.293332 275.546 0.879997C277.306 1.46666 278.373 2 278.746 2.48C279.173 3.01333 279.386 5.92 279.386 11.2C279.386 12.32 279.039 12.88 278.346 12.88C277.759 12.88 277.359 12.5333 277.146 11.84C276.986 11.0933 276.613 10.0267 276.026 8.64C275.173 6.50666 274.239 4.88 273.226 3.76C272.213 2.64 270.773 2.08 268.906 2.08C266.506 2.08 264.613 2.82666 263.226 4.32C261.893 5.76 261.226 7.76 261.226 10.32C261.226 12.4533 261.813 14.1867 262.986 15.52C264.213 16.8533 266.106 18.1867 268.666 19.52C270.799 20.64 272.693 21.76 274.346 22.88C275.999 24 277.386 25.2533 278.506 26.64C279.679 27.9733 280.559 29.4933 281.146 31.2C281.733 32.9067 282.026 34.88 282.026 37.12C282.026 39.4667 281.626 41.6267 280.826 43.6C280.079 45.5733 279.013 47.28 277.626 48.72C276.293 50.16 274.666 51.28 272.746 52.08C270.879 52.9333 268.826 53.36 266.586 53.36C263.066 53.36 260.213 52.8 258.026 51.68C255.839 50.5067 254.746 48.7733 254.746 46.48C254.746 45.5733 254.773 44.6933 254.826 43.84C254.879 42.9867 254.906 42.1867 254.906 41.44C254.906 40.8533 254.879 40.4 254.826 40.08C254.826 39.7067 254.826 39.4667 254.826 39.36C254.826 37.7067 255.226 36.88 256.026 36.88C256.399 36.88 256.666 37.04 256.826 37.36C256.986 37.6267 257.093 38.0267 257.146 38.56C257.253 39.04 257.359 39.6267 257.466 40.32C257.573 41.0133 257.733 41.7333 257.946 42.48C258.746 45.2 260.026 47.3067 261.786 48.8C263.599 50.2933 265.519 51.04 267.546 51.04C268.719 51.04 269.839 50.8 270.906 50.32C271.973 49.84 272.879 49.1733 273.626 48.32C274.426 47.4667 275.039 46.4533 275.466 45.28C275.946 44.1067 276.186 42.8267 276.186 41.44C276.186 38.9867 275.413 36.8 273.866 34.88C272.373 32.9067 270.106 31.0667 267.066 29.36C265.466 28.4533 263.946 27.5733 262.506 26.72C261.119 25.8667 259.893 24.88 258.826 23.76C257.813 22.64 256.986 21.3067 256.346 19.76C255.759 18.2133 255.466 16.2667 255.466 13.92Z" fill="#728BD1"/>
<path d="M226.818 0C229.858 0 232.738 0.693333 235.458 2.08C238.178 3.41333 240.551 5.28 242.578 7.68C244.604 10.0267 246.204 12.8267 247.378 16.08C248.604 19.3333 249.218 22.8533 249.218 26.64C249.218 30.4267 248.631 33.9467 247.458 37.2C246.284 40.4533 244.658 43.28 242.578 45.68C240.551 48.08 238.151 49.9733 235.378 51.36C232.658 52.6933 229.751 53.36 226.658 53.36C223.618 53.36 220.738 52.6933 218.018 51.36C215.298 49.9733 212.924 48.08 210.898 45.68C208.871 43.28 207.244 40.4533 206.018 37.2C204.844 33.9467 204.258 30.4267 204.258 26.64C204.258 22.8533 204.844 19.3333 206.018 16.08C207.244 12.8267 208.871 10.0267 210.898 7.68C212.924 5.28 215.298 3.41333 218.018 2.08C220.791 0.693333 223.724 0 226.818 0ZM226.338 2.24C224.418 2.24 222.604 2.77333 220.898 3.84C219.191 4.85333 217.698 6.34666 216.418 8.32C215.191 10.2933 214.204 12.72 213.458 15.6C212.764 18.48 212.418 21.7867 212.418 25.52C212.418 29.52 212.791 33.12 213.538 36.32C214.284 39.4667 215.324 42.1333 216.658 44.32C217.991 46.5067 219.538 48.1867 221.298 49.36C223.111 50.48 225.031 51.04 227.058 51.04C228.978 51.04 230.791 50.5333 232.498 49.52C234.204 48.4533 235.698 46.9333 236.978 44.96C238.258 42.9333 239.244 40.48 239.938 37.6C240.684 34.72 241.058 31.4133 241.058 27.68C241.058 23.68 240.658 20.1067 239.858 16.96C239.111 13.8133 238.071 11.1467 236.738 8.96C235.404 6.77333 233.831 5.12 232.018 4C230.258 2.82667 228.364 2.24 226.338 2.24Z" fill="#728BD1"/>
<path d="M158.551 16.72V20C158.551 20.6933 158.631 21.04 158.791 21.04C158.951 21.04 159.164 20.88 159.431 20.56L160.311 19.52C161.431 18.1333 162.711 17.0666 164.151 16.32C165.644 15.5733 167.191 15.2 168.791 15.2C172.097 15.2 174.657 16.3466 176.471 18.64C178.337 20.88 179.271 24.2133 179.271 28.64V45.84C179.271 47.4933 179.671 48.5866 180.471 49.12C180.844 49.3333 181.217 49.4666 181.591 49.52C182.017 49.5733 182.391 49.6266 182.711 49.68C183.031 49.7333 183.271 49.84 183.431 50C183.644 50.16 183.751 50.4533 183.751 50.88C183.751 51.7333 183.271 52.16 182.311 52.16C181.564 52.16 180.657 52.0533 179.591 51.84C178.524 51.68 177.297 51.6 175.911 51.6C174.524 51.6 173.324 51.68 172.311 51.84C171.351 52.0533 170.604 52.16 170.071 52.16C169.217 52.16 168.791 51.7066 168.791 50.8C168.791 50.4266 168.844 50.16 168.951 50C169.111 49.84 169.297 49.7333 169.511 49.68C169.777 49.6266 170.044 49.6 170.311 49.6C170.631 49.5466 170.951 49.44 171.271 49.28C171.911 48.96 172.284 48.56 172.391 48.08C172.497 47.5466 172.551 46.8 172.551 45.84V29.68C172.551 26.48 171.964 24.08 170.791 22.48C169.617 20.8266 167.937 20 165.751 20C163.724 20 162.071 20.6933 160.791 22.08C159.511 23.4666 158.871 25.6 158.871 28.48V45.84C158.871 46.7466 158.924 47.4666 159.031 48C159.191 48.48 159.537 48.8533 160.071 49.12C160.551 49.3866 160.977 49.5466 161.351 49.6C161.724 49.6 162.044 49.6266 162.311 49.68C162.631 49.7333 162.871 49.84 163.031 50C163.191 50.16 163.271 50.48 163.271 50.96C163.271 51.76 162.791 52.16 161.831 52.16C161.084 52.16 160.177 52.0533 159.111 51.84C158.044 51.68 156.844 51.6 155.511 51.6C154.124 51.6 152.951 51.68 151.991 51.84C151.031 52.0533 150.257 52.16 149.671 52.16C148.817 52.16 148.391 51.7066 148.391 50.8C148.391 50.4266 148.444 50.16 148.551 50C148.711 49.84 148.897 49.7333 149.111 49.68C149.324 49.6266 149.564 49.6 149.831 49.6C150.151 49.5466 150.471 49.44 150.791 49.28C151.377 49.0133 151.751 48.64 151.911 48.16C152.071 47.68 152.151 46.9066 152.151 45.84V26.96C152.151 25.52 151.964 24.56 151.591 24.08C151.271 23.6 150.897 23.3066 150.471 23.2C150.044 23.0933 149.644 23.04 149.271 23.04C148.951 22.9866 148.791 22.6933 148.791 22.16C148.791 21.6266 149.137 21.1733 149.831 20.8C150.524 20.3733 151.537 19.76 152.871 18.96C154.417 18.0533 155.511 17.1733 156.151 16.32C156.791 15.4666 157.351 15.04 157.831 15.04C157.991 15.04 158.151 15.1733 158.311 15.44C158.471 15.7066 158.551 16.1333 158.551 16.72Z" fill="black"/>
<path d="M137.938 1.27997C138.898 1.27997 139.725 1.7333 140.418 2.63997C141.111 3.54663 141.458 4.55997 141.458 5.67997C141.458 6.79997 141.111 7.8133 140.418 8.71997C139.725 9.62663 138.898 10.08 137.938 10.08C136.978 10.08 136.151 9.62663 135.458 8.71997C134.765 7.8133 134.418 6.79997 134.418 5.67997C134.418 4.55997 134.765 3.54663 135.458 2.63997C136.151 1.7333 136.978 1.27997 137.938 1.27997ZM140.978 16.64V45.84C140.978 46.8 141.058 47.52 141.218 48C141.431 48.48 141.778 48.8533 142.258 49.12C142.685 49.3333 143.085 49.4666 143.458 49.52C143.885 49.5733 144.231 49.6533 144.498 49.76C144.818 49.8133 145.058 49.92 145.218 50.08C145.431 50.24 145.538 50.5066 145.538 50.88C145.538 51.7333 145.058 52.16 144.098 52.16C143.298 52.16 142.338 52.0533 141.218 51.84C140.098 51.68 138.898 51.6 137.618 51.6C136.231 51.6 135.058 51.68 134.098 51.84C133.138 52.0533 132.365 52.16 131.778 52.16C130.978 52.16 130.578 51.7066 130.578 50.8C130.578 50.4266 130.631 50.16 130.738 50C130.898 49.84 131.085 49.7333 131.298 49.68C131.565 49.6266 131.831 49.6 132.098 49.6C132.365 49.5466 132.658 49.44 132.978 49.28C133.565 48.96 133.911 48.5866 134.018 48.16C134.178 47.68 134.258 46.9066 134.258 45.84V26.96C134.258 25.52 134.071 24.56 133.698 24.08C133.378 23.6 133.005 23.3066 132.578 23.2C132.205 23.04 131.831 22.96 131.458 22.96C131.138 22.9066 130.978 22.6133 130.978 22.08C130.978 21.4933 131.325 21.0133 132.018 20.64C132.765 20.2666 133.805 19.7066 135.138 18.96C135.938 18.48 136.605 18 137.138 17.52C137.725 17.04 138.205 16.6133 138.578 16.24C138.951 15.8666 139.245 15.5733 139.458 15.36C139.725 15.0933 139.965 14.96 140.178 14.96C140.711 14.96 140.978 15.52 140.978 16.64Z" fill="black"/>
<path d="M119.636 10.7199V15.5999C119.636 16.2933 119.983 16.6399 120.676 16.6399H126.676C127.156 16.6399 127.45 16.6933 127.556 16.7999C127.663 16.9066 127.716 17.1199 127.716 17.4399V19.0399C127.716 19.4666 127.663 19.7599 127.556 19.9199C127.45 20.0799 127.156 20.1599 126.676 20.1599H120.596C119.956 20.1599 119.636 20.5066 119.636 21.1999V41.4399C119.636 43.9466 119.85 45.7866 120.276 46.9599C120.756 48.0799 121.61 48.6399 122.836 48.6399C123.423 48.6399 123.93 48.5333 124.356 48.3199C124.836 48.1066 125.263 47.8666 125.636 47.5999C126.01 47.2799 126.33 47.0133 126.596 46.7999C126.916 46.5866 127.21 46.4799 127.476 46.4799C128.01 46.4799 128.276 46.8533 128.276 47.5999C128.276 47.9733 128.036 48.4799 127.556 49.1199C127.076 49.7599 126.41 50.3999 125.556 51.0399C124.756 51.6799 123.796 52.2133 122.676 52.6399C121.61 53.1199 120.463 53.3599 119.236 53.3599C114.97 53.3599 112.836 49.9733 112.836 43.1999V39.8399L113.156 22.6399C113.156 21.8933 113.103 21.3066 112.996 20.8799C112.89 20.3999 112.57 20.1599 112.036 20.1599H110.596C109.636 20.1599 109.156 19.8133 109.156 19.1199C109.156 18.7999 109.29 18.5066 109.556 18.2399C109.823 17.9733 110.196 17.6799 110.676 17.3599C111.156 17.0399 111.69 16.6399 112.276 16.1599C112.916 15.6799 113.61 15.0399 114.356 14.2399C115.636 12.7466 116.57 11.4666 117.156 10.3999C117.796 9.33326 118.356 8.79993 118.836 8.79993C119.21 8.79993 119.423 8.9866 119.476 9.35993C119.583 9.67993 119.636 10.1333 119.636 10.7199Z" fill="black"/>
<path d="M95.1884 16.64V19.76C95.1884 20.24 95.2684 20.48 95.4284 20.48C95.5351 20.48 95.7751 20.2933 96.1484 19.92L97.7484 18.16C99.4551 16.1333 101.268 15.12 103.188 15.12C104.628 15.12 105.855 15.6533 106.868 16.72C107.882 17.7866 108.388 19.12 108.388 20.72C108.388 21.8933 108.015 22.8533 107.268 23.6C106.575 24.3466 105.722 24.72 104.708 24.72C103.908 24.72 103.215 24.5333 102.628 24.16C102.042 23.7333 101.508 23.28 101.028 22.8C100.548 22.32 100.095 21.8933 99.6684 21.52C99.2418 21.0933 98.8151 20.88 98.3884 20.88C96.4151 20.88 95.4284 23.3866 95.4284 28.4V45.76C95.4284 46.6666 95.5351 47.36 95.7484 47.84C95.9618 48.2666 96.3884 48.6133 97.0284 48.88C97.6684 49.2 98.2551 49.4133 98.7884 49.52C99.3218 49.5733 99.7484 49.6533 100.068 49.76C100.442 49.8133 100.735 49.92 100.948 50.08C101.162 50.24 101.268 50.5333 101.268 50.96C101.268 51.28 101.108 51.5733 100.788 51.84C100.522 52.0533 100.095 52.16 99.5084 52.16C98.4418 52.16 97.2684 52.0533 95.9884 51.84C94.7618 51.68 93.4551 51.6 92.0684 51.6C90.7884 51.6 89.5884 51.68 88.4684 51.84C87.4018 52 86.4418 52.08 85.5884 52.08C84.6284 52.08 84.1484 51.6533 84.1484 50.8C84.1484 50.4266 84.2284 50.1866 84.3884 50.08C84.5484 49.92 84.7618 49.8133 85.0284 49.76C85.2951 49.6533 85.6151 49.5733 85.9884 49.52C86.3618 49.4666 86.7618 49.3333 87.1884 49.12C87.9351 48.7466 88.3618 48.3733 88.4684 48C88.6284 47.5733 88.7084 46.9866 88.7084 46.24V25.76C88.7084 24.8 88.5218 24.16 88.1484 23.84C87.8284 23.52 87.4551 23.3066 87.0284 23.2C86.6551 23.0933 86.2818 23.0133 85.9084 22.96C85.5884 22.8533 85.4284 22.56 85.4284 22.08C85.4284 21.4933 85.7751 21.0666 86.4684 20.8C87.1618 20.48 88.0684 19.9466 89.1884 19.2C90.7351 18.1333 91.8551 17.1733 92.5484 16.32C93.2951 15.4133 93.9084 14.96 94.3884 14.96C94.9218 14.96 95.1884 15.52 95.1884 16.64Z" fill="black"/>
<path d="M77.2809 24.32V42.88C77.2809 44.5867 77.3876 45.8667 77.6009 46.72C77.8143 47.5733 78.3743 48 79.2809 48C79.8676 48 80.4009 47.7333 80.8809 47.2C81.3609 46.6667 81.8409 46.4 82.3209 46.4C82.9609 46.4 83.2809 46.8 83.2809 47.6C83.2809 48.0267 83.0409 48.56 82.5609 49.2C82.0809 49.7867 81.4943 50.3733 80.8009 50.96C80.1609 51.5467 79.4409 52.0533 78.6409 52.48C77.8943 52.9067 77.2009 53.12 76.5609 53.12C75.1743 53.12 74.0276 52.6667 73.1209 51.76C72.2143 50.8533 71.4676 49.4933 70.8809 47.68H70.4009L68.7209 49.12C67.3343 50.2933 66.0276 51.28 64.8009 52.08C63.5743 52.9333 62.2143 53.36 60.7209 53.36C59.0143 53.36 57.6276 52.8 56.5609 51.68C55.5476 50.5067 55.0409 48.9067 55.0409 46.88C55.0409 45.12 55.3343 43.5733 55.9209 42.24C56.5076 40.9067 57.3609 39.7067 58.4809 38.64C59.6009 37.52 60.9343 36.48 62.4809 35.52C64.0809 34.56 65.8409 33.6 67.7609 32.64L69.7609 31.6C70.1876 31.3867 70.4276 31.1733 70.4809 30.96C70.5876 30.6933 70.6409 30.2667 70.6409 29.68V24C70.6409 21.76 70.4543 20.1333 70.0809 19.12C69.7609 18.1067 68.9076 17.6 67.5209 17.6C66.1343 17.6 65.0409 18.08 64.2409 19.04C63.4409 19.9467 62.6676 21.2533 61.9209 22.96C61.3343 24.2933 60.6676 25.44 59.9209 26.4C59.2276 27.3067 58.0809 27.76 56.4809 27.76C56.0543 27.76 55.6809 27.6267 55.3609 27.36C55.0943 27.0933 54.9609 26.7467 54.9609 26.32C54.9609 25.1467 55.3076 23.8933 56.0009 22.56C56.7476 21.2267 57.7609 20.0267 59.0409 18.96C60.3743 17.84 61.9209 16.9333 63.6809 16.24C65.4943 15.4933 67.4409 15.12 69.5209 15.12C71.2276 15.12 72.5876 15.3333 73.6009 15.76C74.6676 16.1333 75.4676 16.72 76.0009 17.52C76.5343 18.2667 76.8809 19.2267 77.0409 20.4C77.2009 21.52 77.2809 22.8267 77.2809 24.32ZM70.7209 34.8C70.7209 34.16 70.5876 33.84 70.3209 33.84C70.1609 33.84 69.8943 33.9467 69.5209 34.16L66.8809 35.44C63.7343 37.04 62.1609 39.7067 62.1609 43.44C62.1609 44.9867 62.4276 46.16 62.9609 46.96C63.5476 47.76 64.2943 48.16 65.2009 48.16C65.8409 48.16 66.4809 48 67.1209 47.68C67.7609 47.3067 68.3476 46.8267 68.8809 46.24C69.4143 45.6 69.8409 44.8533 70.1609 44C70.5343 43.1467 70.7209 42.1867 70.7209 41.12V34.8Z" fill="black"/>
<path d="M3.28 1.59998H13.76C14.0267 1.59998 14.24 1.65331 14.4 1.75997C14.6133 1.81331 14.7733 1.99998 14.88 2.31998L25.52 34.64C25.7333 35.28 25.92 35.6 26.08 35.6C26.2933 35.6 26.5067 35.3066 26.72 34.72L37.2 2.95998C37.3067 2.53331 37.44 2.21331 37.6 1.99998C37.8133 1.73331 38.1333 1.59998 38.56 1.59998H48.88C49.6267 1.59998 50 1.94664 50 2.63998C50 3.06664 49.8667 3.35997 49.6 3.51997C49.3867 3.62664 49.0933 3.70664 48.72 3.75998C48.3467 3.81331 47.92 3.86664 47.44 3.91998C47.0133 3.91998 46.56 4.02664 46.08 4.23997C45.4933 4.50664 45.12 4.85331 44.96 5.27998C44.8533 5.65331 44.8 6.37331 44.8 7.43998V9.35998L45.68 44.4C45.7333 45.84 45.8133 46.88 45.92 47.52C46.08 48.16 46.5867 48.6666 47.44 49.04C47.92 49.2533 48.4 49.3866 48.88 49.44C49.36 49.44 49.76 49.4666 50.08 49.52C50.4533 49.52 50.7467 49.6 50.96 49.76C51.1733 49.92 51.28 50.24 51.28 50.72C51.28 51.04 51.12 51.3333 50.8 51.6C50.5333 51.8133 50.1333 51.92 49.6 51.92C48.7467 51.92 47.7067 51.84 46.48 51.68C45.3067 51.4666 43.92 51.36 42.32 51.36C40.56 51.36 39.0133 51.4666 37.68 51.68C36.4 51.84 35.3867 51.92 34.64 51.92C33.5733 51.92 33.04 51.4933 33.04 50.64C33.04 49.84 33.44 49.44 34.24 49.44C35.2533 49.44 36.0267 49.36 36.56 49.2C37.1467 49.04 37.5733 48.7733 37.84 48.4C38.16 47.9733 38.3467 47.44 38.4 46.8C38.4533 46.16 38.48 45.36 38.48 44.4V42.56L37.92 12.96C37.92 12.3733 37.7867 12.08 37.52 12.08C37.36 12.08 37.2 12.3466 37.04 12.88L25.28 49.12C25.0133 49.92 24.5867 50.32 24 50.32C23.3067 50.32 22.88 50 22.72 49.36L10.8 12.96C10.5333 12.2666 10.3467 11.92 10.24 11.92C9.97333 11.92 9.81333 12.4266 9.76 13.44L8.4 37.92C8.34667 38.8266 8.29333 39.6533 8.24 40.4C8.24 41.1466 8.24 41.8133 8.24 42.4C8.24 44.9066 8.45333 46.7466 8.88 47.92C9.30667 49.04 10.2933 49.6 11.84 49.6C12 49.6 12.16 49.6 12.32 49.6C12.48 49.5466 12.6667 49.52 12.88 49.52C13.8933 49.52 14.4 49.92 14.4 50.72C14.4 51.5733 13.7333 52 12.4 52C11.8133 52 11.04 51.9466 10.08 51.84C9.17333 51.7333 8.10667 51.68 6.88 51.68C5.81333 51.68 4.85333 51.7333 4 51.84C3.2 51.9466 2.50667 52 1.92 52C0.64 52 0 51.5733 0 50.72C0 49.92 0.373333 49.52 1.12 49.52C1.44 49.52 1.70667 49.5466 1.92 49.6C2.18667 49.6 2.4 49.6 2.56 49.6C3.25333 49.6 3.81333 49.3866 4.24 48.96C4.66667 48.48 4.98667 47.7333 5.2 46.72C5.41333 45.7066 5.57333 44.4 5.68 42.8C5.78667 41.1466 5.89333 39.12 6 36.72L7.36 9.35998C7.36 9.25331 7.36 9.06664 7.36 8.79997C7.41333 8.53331 7.44 8.18664 7.44 7.75998C7.44 6.53331 7.33333 5.67998 7.12 5.19998C6.90667 4.71998 6.42667 4.34664 5.68 4.07998C5.2 3.91998 4.74667 3.83998 4.32 3.83998C3.89333 3.78664 3.52 3.75998 3.2 3.75998C2.88 3.70664 2.61333 3.62664 2.4 3.51997C2.24 3.35997 2.16 3.06664 2.16 2.63998C2.16 1.94664 2.53333 1.59998 3.28 1.59998Z" fill="black"/>
</svg>
